<svg xmlns="http://www.w3.org/2000/svg"
     width="142" height="142" viewBox="0 0 142 142"
     fill="none">
    <path id="Vector_1" d="M71 112C93.6437 112 112 93.6437 112 71C112 48.3563 93.6437 30 71 30C48.3563 30 30 48.3563 30 71C30 93.6437 48.3563 112 71 112Z" fill="#0DC332"/>
    <path id="Vector_2" d="M133.5 71C133.5 105.518 105.518 133.5 71 133.5C36.4822 133.5 8.5 105.518 8.5 71C8.5 36.4822 36.4822 8.5 71 8.5C105.518 8.5 133.5 36.4822 133.5 71Z" stroke="#D1D1D1"/>
    <path id="Vector_3" d="M92 56L66.1538 85L50 72.1111" stroke="white" stroke-width="6" stroke-miterlimit="10" stroke-linecap="round" stroke-linejoin="round"/>
</svg>
