<svg xmlns="http://www.w3.org/2000/svg"
     width="16" height="11" viewBox="0 0 16 11"
     fill="none">
<mask id="path-1-inside-1_1_135" fill="white">
<path d="M8.02008 6.59696H8.0235C8.14416 6.59696 8.2634 6.56097 8.35987 6.49545L8.38604 6.47817C8.39174 6.47435 8.3977 6.47088 8.40369 6.46677L8.70847 6.20755L15.9832 0.0359879C15.9682 0.0146209 15.9425 0 15.9152 0H0.0845229C0.0648889 0 0.0466667 0.00731059 0.0321569 0.0195933L7.64327 6.46879C7.73919 6.55044 7.87605 6.59696 8.02008 6.59696ZM0 0.87449V10.0225L5.45229 5.49458L0 0.87449ZM10.5534 5.5253L16 10.0249V0.904915L10.5534 5.5253ZM8.82173 6.99396C8.6046 7.1771 8.3206 7.27805 8.02235 7.27805C7.72298 7.27805 7.43924 7.17769 7.22269 6.99541L5.97393 5.93663L0 10.897V10.9128C0 10.9599 0.039268 11 0.0856471 11H15.9155C15.961 11 16 10.9599 16 10.9125V10.8979L10.0312 5.96767L8.82173 6.99396Z"/>
</mask>
<path d="M8.02008 6.59696H8.0235C8.14416 6.59696 8.2634 6.56097 8.35987 6.49545L8.38604 6.47817C8.39174 6.47435 8.3977 6.47088 8.40369 6.46677L8.70847 6.20755L15.9832 0.0359879C15.9682 0.0146209 15.9425 0 15.9152 0H0.0845229C0.0648889 0 0.0466667 0.00731059 0.0321569 0.0195933L7.64327 6.46879C7.73919 6.55044 7.87605 6.59696 8.02008 6.59696ZM0 0.87449V10.0225L5.45229 5.49458L0 0.87449ZM10.5534 5.5253L16 10.0249V0.904915L10.5534 5.5253ZM8.82173 6.99396C8.6046 7.1771 8.3206 7.27805 8.02235 7.27805C7.72298 7.27805 7.43924 7.17769 7.22269 6.99541L5.97393 5.93663L0 10.897V10.9128C0 10.9599 0.039268 11 0.0856471 11H15.9155C15.961 11 16 10.9599 16 10.9125V10.8979L10.0312 5.96767L8.82173 6.99396Z" stroke="black" stroke-width="1.6" mask="url(#path-1-inside-1_1_135)"/>
</svg>
