<svg xmlns="http://www.w3.org/2000/svg"
     width="20" height="19" viewBox="0 0 20 19">
<path d="M18.512 18.013H1.48799C0.671986 18.013 0.0109863 17.434 0.0109863 16.72V1.28199C0.0109863 0.56899 0.671986 -0.0100098 1.48799 -0.0100098H18.512C19.327 -0.0100098 19.988 0.56899 19.988 1.28199V16.72C19.988 17.434 19.327 18.013 18.512 18.013ZM3.47299 15.044H6.41499V6.90699H3.47299V15.044ZM4.96399 2.98499C3.95699 2.98499 3.29999 3.59199 3.29999 4.39099C3.29999 5.17099 3.93799 5.79699 4.92499 5.79699H4.94399C5.96999 5.79699 6.60799 5.17099 6.60799 4.39099C6.58999 3.59199 5.96999 2.98499 4.96399 2.98499ZM17.023 10.379C17.023 7.87899 15.571 6.71599 13.636 6.71599C12.074 6.71599 11.376 7.50499 10.985 8.05999V6.90699H8.04299C8.08199 7.67099 8.04299 15.044 8.04299 15.044H10.985V10.5C10.985 10.258 11.004 10.014 11.082 9.84099C11.294 9.35499 11.779 8.85199 12.591 8.85199C13.656 8.85199 14.081 9.59799 14.081 10.692V15.044H17.023V10.379ZM10.965 8.08699C10.971 8.07799 10.979 8.06899 10.985 8.05999V8.08699H10.965Z"/>
</svg>
