<svg xmlns="http://www.w3.org/2000/svg"
     width="11" height="16" viewBox="0 0 11 16"
     fill="none">
<mask id="path-1-inside-1_1_130" fill="white">
<path d="M9.38908 1.63802C7.24136 -0.546005 3.75895 -0.546005 1.61092 1.63802C-0.324394 3.60603 -0.542253 7.31161 1.10016 9.5384L5.5 16L9.89984 9.5384C11.5423 7.31161 11.3244 3.60603 9.38908 1.63802ZM5.55356 7.38453C4.5508 7.38453 3.73807 6.55806 3.73807 5.53836C3.73807 4.51866 4.5508 3.69219 5.55356 3.69219C6.55631 3.69219 7.36905 4.51866 7.36905 5.53836C7.36905 6.55806 6.55631 7.38453 5.55356 7.38453Z"/>
</mask>
<path d="M9.38908 1.63802C7.24136 -0.546005 3.75895 -0.546005 1.61092 1.63802C-0.324394 3.60603 -0.542253 7.31161 1.10016 9.5384L5.5 16L9.89984 9.5384C11.5423 7.31161 11.3244 3.60603 9.38908 1.63802ZM5.55356 7.38453C4.5508 7.38453 3.73807 6.55806 3.73807 5.53836C3.73807 4.51866 4.5508 3.69219 5.55356 3.69219C6.55631 3.69219 7.36905 4.51866 7.36905 5.53836C7.36905 6.55806 6.55631 7.38453 5.55356 7.38453Z" stroke="black" stroke-width="2" mask="url(#path-1-inside-1_1_130)"/>
</svg>
