<svg xmlns="http://www.w3.org/2000/svg"
     width="17" height="16" viewBox="0 0 17 16"
     fill="none">
<mask id="path-1-inside-1_1_133" fill="white">
<path d="M16.0028 12.6271C16.0367 12.887 15.9575 13.113 15.7655 13.305L13.5113 15.5422C13.4096 15.6552 13.2768 15.7514 13.113 15.8304C12.9492 15.9095 12.7882 15.9604 12.63 15.9829C12.6187 15.9829 12.5848 15.9858 12.5282 15.9915C12.4718 15.9971 12.3984 16 12.308 16C12.0932 16 11.7457 15.9633 11.2655 15.8898C10.7853 15.8163 10.1978 15.6355 9.5029 15.3474C8.80787 15.0593 8.01976 14.627 7.13844 14.0508C6.25711 13.4746 5.31923 12.6836 4.32488 11.6779C3.53392 10.8983 2.87856 10.1525 2.35878 9.44068C1.83901 8.72879 1.42093 8.0706 1.10455 7.46608C0.788135 6.86156 0.550847 6.31354 0.392655 5.82202C0.234463 5.33049 0.127118 4.90677 0.0706214 4.55083C0.0141243 4.1949 -0.00847457 3.91524 0.00282486 3.71185C0.0141243 3.50847 0.019774 3.39547 0.019774 3.37287C0.0423728 3.21468 0.0932202 3.05366 0.172316 2.88982C0.251412 2.72598 0.347457 2.59321 0.460451 2.49152L2.71469 0.237287C2.87288 0.0790958 3.05367 0 3.25706 0C3.40395 0 3.53389 0.0423728 3.64689 0.127118C3.75988 0.211864 3.85593 0.316383 3.93502 0.440677L5.74858 3.88135C5.85028 4.06214 5.87852 4.25988 5.83333 4.47456C5.78813 4.68925 5.69208 4.87004 5.54519 5.01694L4.71468 5.84744C4.69208 5.87004 4.67231 5.90676 4.65536 5.95761C4.63841 6.00846 4.62994 6.05083 4.62994 6.08473C4.67514 6.32202 4.77683 6.5932 4.93502 6.89829C5.07062 7.16947 5.27965 7.49998 5.56214 7.88981C5.84463 8.27964 6.24575 8.72876 6.76553 9.23724C7.274 9.75706 7.72598 10.161 8.12146 10.4492C8.51686 10.7372 8.84748 10.9491 9.11301 11.0847C9.37855 11.2203 9.58194 11.3022 9.72315 11.3304L9.93496 11.3728C9.95756 11.3728 9.99437 11.3643 10.0452 11.3474C10.096 11.3304 10.1327 11.3106 10.1554 11.288L11.1214 10.305C11.3249 10.1242 11.5621 10.0338 11.8333 10.0338C12.0255 10.0338 12.1779 10.0677 12.2909 10.1355H12.3078L15.579 12.0677C15.8164 12.2147 15.9576 12.4011 16.0028 12.6271Z"/>
</mask>
<path d="M16.0028 12.6271C16.0367 12.887 15.9575 13.113 15.7655 13.305L13.5113 15.5422C13.4096 15.6552 13.2768 15.7514 13.113 15.8304C12.9492 15.9095 12.7882 15.9604 12.63 15.9829C12.6187 15.9829 12.5848 15.9858 12.5282 15.9915C12.4718 15.9971 12.3984 16 12.308 16C12.0932 16 11.7457 15.9633 11.2655 15.8898C10.7853 15.8163 10.1978 15.6355 9.5029 15.3474C8.80787 15.0593 8.01976 14.627 7.13844 14.0508C6.25711 13.4746 5.31923 12.6836 4.32488 11.6779C3.53392 10.8983 2.87856 10.1525 2.35878 9.44068C1.83901 8.72879 1.42093 8.0706 1.10455 7.46608C0.788135 6.86156 0.550847 6.31354 0.392655 5.82202C0.234463 5.33049 0.127118 4.90677 0.0706214 4.55083C0.0141243 4.1949 -0.00847457 3.91524 0.00282486 3.71185C0.0141243 3.50847 0.019774 3.39547 0.019774 3.37287C0.0423728 3.21468 0.0932202 3.05366 0.172316 2.88982C0.251412 2.72598 0.347457 2.59321 0.460451 2.49152L2.71469 0.237287C2.87288 0.0790958 3.05367 0 3.25706 0C3.40395 0 3.53389 0.0423728 3.64689 0.127118C3.75988 0.211864 3.85593 0.316383 3.93502 0.440677L5.74858 3.88135C5.85028 4.06214 5.87852 4.25988 5.83333 4.47456C5.78813 4.68925 5.69208 4.87004 5.54519 5.01694L4.71468 5.84744C4.69208 5.87004 4.67231 5.90676 4.65536 5.95761C4.63841 6.00846 4.62994 6.05083 4.62994 6.08473C4.67514 6.32202 4.77683 6.5932 4.93502 6.89829C5.07062 7.16947 5.27965 7.49998 5.56214 7.88981C5.84463 8.27964 6.24575 8.72876 6.76553 9.23724C7.274 9.75706 7.72598 10.161 8.12146 10.4492C8.51686 10.7372 8.84748 10.9491 9.11301 11.0847C9.37855 11.2203 9.58194 11.3022 9.72315 11.3304L9.93496 11.3728C9.95756 11.3728 9.99437 11.3643 10.0452 11.3474C10.096 11.3304 10.1327 11.3106 10.1554 11.288L11.1214 10.305C11.3249 10.1242 11.5621 10.0338 11.8333 10.0338C12.0255 10.0338 12.1779 10.0677 12.2909 10.1355H12.3078L15.579 12.0677C15.8164 12.2147 15.9576 12.4011 16.0028 12.6271Z" stroke="black" stroke-width="2" mask="url(#path-1-inside-1_1_133)"/>
</svg>
